<svg xmlns="http://www.w3.org/2000/svg" width="15.5222mm" height="15.5222mm" viewBox="0 0 44 44">
  <title>image_large_v2</title>
  <rect width="44" height="44" style="fill: none"/>
  <path d="M8.8,20.3v1.3C8.8,24,8.1,26,5,27l-.7-.9c2.8-.8,3.3-2.3,3.3-4.6V20.2H4.4v3H3.2v-3H1V19.1H3.2V16.8H4.4v2.3H7.7V16.8H8.9v2.3h2.3v1.1H8.8Zm3.3,4.8a11.1949,11.1949,0,0,0,2.4-3.3l1.1.4a12.43,12.43,0,0,1-2.5,3.5ZM15,26.9V25.8a4.8686,4.8686,0,0,0,1.2.1c.5,0,.7-.2.7-.7V20.5H12.7V19.4h4.2V16.9h1.2v2.5h4.2v1.1H18.1v4.9c0,1.2-.5,1.7-1.6,1.7C16.1,27,15.6,27,15,26.9Zm4.4-4.7,1-.6A21.2834,21.2834,0,0,1,22.9,25l-1,.6A29.8535,29.8535,0,0,0,19.4,22.2Zm.5-4.6a1.4144,1.4144,0,0,1,2.4-1,1.5277,1.5277,0,0,1,.4,1,1.2839,1.2839,0,0,1-.4,1,1.5277,1.5277,0,0,1-1,.4,1.2839,1.2839,0,0,1-1-.4,1.4327,1.4327,0,0,1-.4-1Zm2.1,0a.6835.6835,0,0,0-.7-.7h0a.7072.7072,0,1,0,.7.7Zm12.1,5H24.5V21.4h9.6Zm3.7-1V27H36.6V16.9h1.2v3.4A50.428,50.428,0,0,1,43,22.9l-.7,1A31.68,31.68,0,0,0,37.8,21.6Z" style="fill: #fff"/>
</svg>
