<svg xmlns="http://www.w3.org/2000/svg" width="55" height="43" viewBox="0 0 55 43"><path d="M10.8 18.6v1.6c0 3.1-.8 5.7-4.8 7L5.2 26c3.5-1 4.2-2.9 4.2-5.8v-1.6H5.2v3.8H3.8v-3.8H1v-1.4h2.8v-2.9h1.5v2.9h4.1v-2.9h1.5v2.9h2.9v1.4h-3zm4.2 6c1.28-1.18 2.3-2.61 3-4.2l1.3.5c-.8 1.67-1.88 3.2-3.2 4.5l-1.1-.8zm3.7 2.3v-1.4c.5.08 1 .12 1.5.1.7 0 .9-.2.9-.9v-6h-5.3v-1.4H21v-3.1h1.5v3.1h5.3v1.4h-5.3v6.1c0 1.5-.6 2.1-2 2.1-.6.1-1.2.1-1.8 0zm5.4-5.9l1.2-.7c1.18 1.29 2.21 2.7 3.1 4.2l-1.3.8c-.79-1.57-1.8-3.02-3-4.3zm.7-5.9c0-.94.76-1.71 1.7-1.71s1.71.76 1.71 1.7-.76 1.71-1.7 1.71c-.46 0-.89-.18-1.21-.5-.34-.3-.52-.74-.5-1.2zm2.7 0c-.01-.55-.45-.99-1-1a.986.986 0 0 0-1 .98c0 .27.11.53.3.72.39.39 1.03.38 1.41-.01.18-.19.29-.43.29-.69zm15.2 6.3H30.6v-1.5h12.1v1.5zm4.7-1.2V27h-1.5V14.3h1.5v4.3c2.26.98 4.46 2.08 6.6 3.3l-.9 1.3a38.235 38.235 0 0 0-5.7-3z" fill="#fff"/><path fill="none" d="M0 0h55v43H0z"/></svg>