<svg id="Airpods" xmlns="http://www.w3.org/2000/svg" viewBox="0 0 27 54"><defs><style>.cls-1{fill:none;}.cls-2{fill:#1d1d1f;}</style></defs><title>watch_nav_airpods_large_light</title><rect id="Bounding_Box" data-name="Bounding Box" class="cls-1" width="27" height="54"/><path class="cls-2" d="M6.3,22.5a5.81,5.81,0,0,0-4.2,1.6L.6,25.6A1.87,1.87,0,0,0,.1,27v2.4a2.2,2.2,0,0,0,.1.8,3,3,0,0,0,.4.8,1.79,1.79,0,0,0,.5.7,6.92,6.92,0,0,0,5.2,2.4,6.11,6.11,0,0,0,6.3-5.8A6.11,6.11,0,0,0,6.3,22.5ZM2.8,30a.47.47,0,0,1-.5.5H2.1a.47.47,0,0,1-.5-.5V26.6a.47.47,0,0,1,.5-.5h.2a.47.47,0,0,1,.5.5Zm5.7-.8H6.8a.92.92,0,0,1-.9-1,.9.9,0,0,1,.9-.9H8.6a.92.92,0,0,1,.9,1A1,1,0,0,1,8.5,29.2Zm-2,19.31A1.45,1.45,0,0,0,7.9,50H9.6A1.46,1.46,0,0,0,11,48.5V34a8.94,8.94,0,0,1-4.5,1.5ZM26.4,25.6l-1.5-1.5a5.43,5.43,0,0,0-4.2-1.6,6.11,6.11,0,0,0-6.3,5.8,6.11,6.11,0,0,0,6.3,5.8,6.59,6.59,0,0,0,5.2-2.4c.2-.2.3-.5.5-.7a2,2,0,0,0,.4-.8,2.2,2.2,0,0,0,.1-.8V27A1.87,1.87,0,0,0,26.4,25.6Zm-6.2,3.6H18.4a1,1,0,0,1,0-2h1.8a.92.92,0,0,1,.9,1A.83.83,0,0,1,20.2,29.2Zm5.2.8a.47.47,0,0,1-.5.5h-.2a.47.47,0,0,1-.5-.5V26.6a.47.47,0,0,1,.5-.5h.2a.47.47,0,0,1,.5.5ZM16,48.6a1.47,1.47,0,0,0,1.5,1.5H19a1.47,1.47,0,0,0,1.5-1.5V35.5A7.38,7.38,0,0,1,16,34Z"/></svg>